<svg width="28" height="29" viewBox="0 0 28 29" fill="none" xmlns="http://www.w3.org/2000/svg">
<path d="M14.1422 0.699219C6.57161 0.699219 0.43457 6.83626 0.43457 14.4069C0.43457 21.9775 6.57161 28.1145 14.1422 28.1145C21.7129 28.1145 27.8499 21.9775 27.8499 14.4069C27.8499 6.83626 21.7129 0.699219 14.1422 0.699219ZM10.7867 20.0884H8.01091V11.1556H10.7867V20.0884ZM9.38168 10.059C8.50496 10.059 7.93809 9.43785 7.93809 8.66965C7.93809 7.88575 8.52209 7.28318 9.41737 7.28318C10.3127 7.28318 10.861 7.88575 10.8781 8.66965C10.8781 9.43785 10.3127 10.059 9.38168 10.059ZM20.9247 20.0884H18.1489V15.138C18.1489 13.9857 17.7462 13.2032 16.7424 13.2032C15.9756 13.2032 15.5201 13.7329 15.3188 14.2427C15.2446 14.424 15.226 14.681 15.226 14.9366V20.087H12.4488V14.0042C12.4488 12.889 12.4131 11.9566 12.3759 11.1542H14.7876L14.9147 12.395H14.9704C15.3359 11.8124 16.2312 10.9528 17.7291 10.9528C19.5553 10.9528 20.9247 12.1765 20.9247 14.8067V20.0884Z" fill="#CBA051"/>
</svg>
