<svg width="29" height="28" viewBox="0 0 29 28" fill="none" xmlns="http://www.w3.org/2000/svg">
<path fill-rule="evenodd" clip-rule="evenodd" d="M14.4279 27.6733C21.9984 27.6733 28.1355 21.5363 28.1355 13.9657C28.1355 6.3952 21.9984 0.258057 14.4279 0.258057C6.85736 0.258057 0.720215 6.3952 0.720215 13.9657C0.720215 21.5363 6.85736 27.6733 14.4279 27.6733ZM12.0742 13.9658C12.0742 12.6709 13.131 11.6141 14.426 11.6141C15.7209 11.6141 16.7777 12.6709 16.7777 13.9658C16.7777 15.2608 15.7209 16.3176 14.426 16.3176C13.131 16.3176 12.0742 15.2608 12.0742 13.9658ZM21.4336 11.0548C21.4883 12.0269 21.4795 12.9919 21.4795 13.9658C21.4795 14.0985 21.4797 14.231 21.4799 14.3634C21.4811 15.2028 21.4824 16.0372 21.4336 16.8768C21.3789 18.006 21.1231 19.0063 20.2957 19.8337C19.47 20.6594 18.4679 20.917 17.3387 20.9717C16.3666 21.0264 15.4016 21.0176 14.4277 21.0176L14.0731 21.0178C13.2206 21.0188 12.3721 21.0197 11.5167 20.9717C10.3876 20.917 9.38727 20.6612 8.55981 19.8337C7.73413 19.0081 7.47656 18.006 7.42188 16.8768C7.3739 16.0236 7.37482 15.1746 7.37579 14.3223L7.37604 13.9658C7.37604 12.9937 7.36719 12.0287 7.42188 11.0548C7.47656 9.92566 7.73242 8.92535 8.55981 8.0979C9.3855 7.27222 10.3876 7.01465 11.5167 6.95996C12.3699 6.91199 13.2176 6.9129 14.0706 6.91388L14.4277 6.91412L14.7842 6.91388C15.6361 6.9129 16.4841 6.91199 17.3387 6.95996C18.4679 7.01465 19.4683 7.27051 20.2957 8.0979C21.1213 8.92358 21.3789 9.92566 21.4336 11.0548ZM10.8075 13.9658C10.8075 15.9683 12.4235 17.5844 14.426 17.5844C16.4284 17.5844 18.0445 15.9683 18.0445 13.9658C18.0445 11.9634 16.4284 10.3474 14.426 10.3474C12.4235 10.3474 10.8075 11.9634 10.8075 13.9658ZM17.3476 10.1992C17.3476 10.6667 17.7252 11.0443 18.1927 11.0443C18.3037 11.0444 18.4136 11.0226 18.5162 10.9802C18.6188 10.9377 18.712 10.8755 18.7905 10.797C18.869 10.7185 18.9313 10.6253 18.9737 10.5227C19.0161 10.4201 19.0379 10.3102 19.0378 10.1992C19.0378 9.73163 18.6602 9.35406 18.1927 9.35406C17.7252 9.35406 17.3476 9.73163 17.3476 10.1992Z" fill="#CBA051"/>
</svg>
