<svg xmlns="http://www.w3.org/2000/svg" viewBox="0 0 429.58 429.58"><defs><style>.cls-1{fill:#fff;}.cls-2{fill:#ab8549;}.cls-3{fill:#c09a4a;}.cls-4{font-size:45.84px;font-family:BodoniSvtyTwoITCTT-Book, "Bodoni 72";}.cls-5{fill:#020202;}.cls-6{fill:#030303;}.cls-7{fill:#54baea;}</style></defs><g id="Layer_2" data-name="Layer 2"><g id="Layer_1-2" data-name="Layer 1"><circle class="cls-1" cx="214.79" cy="214.79" r="213.44" transform="translate(-88.97 214.79) rotate(-45)"/><path class="cls-2" d="M214.79,2.69a212.15,212.15,0,0,1,82.56,407.53A212.16,212.16,0,0,1,132.23,19.35,210.75,210.75,0,0,1,214.79,2.69m0-2.69C96.16,0,0,96.16,0,214.79S96.16,429.58,214.79,429.58s214.79-96.17,214.79-214.79S333.41,0,214.79,0Z"/><path class="cls-3" d="M72.16,325.24l-8.85,4.37,6.61-7.33-8.22-5.49,9.65,2L72,309l3.07,9.39L83.9,314l-6.59,7.35,8.22,5.48-9.67-2-.63,9.85Z"/><path class="cls-3" d="M359.63,322.32l6.59,7.34-8.84-4.38-3.07,9.38-.64-9.84-9.65,2,8.21-5.48L345.64,314l8.84,4.38,3.08-9.39.63,9.86,9.66-2Z"/><text class="cls-4" transform="translate(73.88 283.29) rotate(-113.32)">I</text><text class="cls-4" transform="translate(68.02 271.24) rotate(-105.52)">N</text><text class="cls-4" transform="translate(60.49 243.39) rotate(-96.26)">S</text><text class="cls-4" transform="matrix(0.03, -1, 1, 0.03, 58.04, 221.73)">P</text><text class="cls-4" transform="translate(58.88 199.54) rotate(-81.85)">I</text><text class="cls-4" transform="translate(60.33 186.13) rotate(-74.6)">R</text><text class="cls-4" transform="translate(67.55 161.18) rotate(-67.34)">I</text><text class="cls-4" transform="matrix(0.51, -0.86, 0.86, 0.51, 72.16, 148.58)">N</text><text class="cls-4" transform="matrix(0.66, -0.76, 0.76, 0.66, 86.59, 123.76)">G</text><text class="cls-4" transform="translate(106.42 101.83) rotate(-42.27)"> </text><text class="cls-4" transform="matrix(0.8, -0.6, 0.6, 0.8, 111.93, 96.31)">S</text><text class="cls-4" transform="translate(129.06 83.01) rotate(-27.63)">C</text><text class="cls-4" transform="translate(154.84 70.02) rotate(-19.87)">I</text><text class="cls-4" transform="translate(167.35 65.03) rotate(-12.65)">E</text><text class="cls-4" transform="matrix(1, -0.05, 0.05, 1, 192.09, 59.22)">N</text><text class="cls-4" transform="translate(220.8 57.71) rotate(7.58)">C</text><text class="cls-4" transform="matrix(0.95, 0.3, -0.3, 0.95, 249.2, 61.52)">E</text><text class="cls-4" transform="matrix(0.92, 0.4, -0.4, 0.92, 273.71, 69.72)"> </text><text class="cls-4" transform="matrix(0.87, 0.5, -0.5, 0.87, 280.99, 72.29)">A</text><text class="cls-4" transform="matrix(0.74, 0.67, -0.67, 0.74, 304.1, 84.6)">W</text><text class="cls-4" transform="matrix(0.59, 0.81, -0.81, 0.59, 333.58, 112)">A</text><text class="cls-4" transform="translate(349.08 133.3) rotate(63.63)">R</text><text class="cls-4" transform="translate(360.83 156.11) rotate(74.12)">D</text><text class="cls-4" transform="translate(368.85 186.9) rotate(81.37)"> </text><text class="cls-4" transform="translate(370.44 194.5) rotate(87.09)">2</text><text class="cls-4" transform="translate(371.71 217.83) rotate(95.51)">0</text><text class="cls-4" transform="translate(369.56 241.05) rotate(104.05)">2</text><text class="cls-4" transform="translate(363.98 263.68) rotate(112.63)">2</text><path class="cls-2" d="M207.63,226.1c0-.83.05-1.53.08-2.18s0-1.48.07-2.33l-2.7,2.39Z"/><path class="cls-2" d="M167.17,279a10.68,10.68,0,0,0,8.23,8,15.44,15.44,0,0,0,13.29-3.16l-21.44-11.93A15.28,15.28,0,0,0,167.17,279Z"/><path class="cls-2" d="M180.48,249.6c-2.43,3-5.33,6.67-7.84,10.54,3.74,2.16,16.77,9.68,24.4,14.22a98.44,98.44,0,0,0,5.17-10.89l-21.49-14.18Z"/><path class="cls-2" d="M262,143.26c-3-1.3-17.45-7.47-25.2-10.87-1.34,3.56-2.57,7.09-3.67,10.52l19.43,12.54A89.06,89.06,0,0,0,262,143.26Z"/><path class="cls-2" d="M188.84,239.81l16.7,12.06a101.7,101.7,0,0,0,1.77-13.48l-9.15-8.07Q193.34,234.91,188.84,239.81Z"/><path class="cls-2" d="M214.79,73.1a141.62,141.62,0,0,0-92.72,248.7H307.51A141.62,141.62,0,0,0,214.79,73.1Zm69,67.63c-5,13.89-21.43,34.32-34.42,46.06-7.52,6.79-15.51,13.28-23.23,19.55l-.69.56c3.43,26.09-3.83,56.35-3.91,56.63-5.29,19.28-14.12,32.78-26.23,40.12a25.39,25.39,0,0,1-7.46,3.22,29.1,29.1,0,0,1-8.93,1.4,27.79,27.79,0,0,1-24.06-13.34c-17.58-28.23,7.9-58.32,19.67-69.94,9-9.47,20-18.93,31.21-28.18,0-26,5.62-50.11,18.7-80.4.17-.41,4.41-10.79,11.76-17.57a1.38,1.38,0,0,1,1.87,2c-6.89,6.36-11.05,16.51-11.09,16.61-12.55,29.06-18.13,52.31-18.46,77l5-4.1c2.89-2.37,5.77-4.74,8.6-7.08.17-2.08.38-4.17.62-6.25l-3.7-2.34a1.37,1.37,0,0,1,1.46-2.33l8.36,5.27,2.92-2.48-11.17-8.4a1.38,1.38,0,0,1,1.66-2.21l2.12,1.6c.77-4.23,1.7-8.51,2.8-12.79-1.91-1.19-3.25-2.05-3.47-2.21a1.38,1.38,0,1,1,1.66-2.2c.7.51,12.65,7.93,20.85,13,1.53-1.51,3-3,4.42-4.49l-23.54-15.19a1.38,1.38,0,1,1,1.5-2.31l2.1,1.35c1.07-3.3,2.25-6.68,3.54-10.09-1.17-.53-2-.92-2.32-1.07a1.38,1.38,0,1,1,1.28-2.44c1.59.84,20.28,8.87,30.14,13.08a46.51,46.51,0,0,0,2.47-5.09l-27.21-11.82h0l-3.46-1.5a1.38,1.38,0,0,1,1.1-2.53l2.14.93c.08-.2.19-.47.51-1.18.05-.22,2.7-9.08,8.41-14.92a1.39,1.39,0,0,1,2,0,1.37,1.37,0,0,1,0,2c-5.22,5.34-7.78,13.84-7.8,13.93-.39.92-.48,1.14-.56,1.34l25.84,11.23c0-.11.08-.21.11-.31,2.71-8,3.18-16.29,2.49-20.66a1.38,1.38,0,1,1,2.72-.43c.77,4.85.27,13.52-2.59,21.93-4.25,13.89-17.79,27.85-34.38,42.25v0a1.49,1.49,0,0,1-.28.23q-4.94,4.28-10.15,8.59a1.33,1.33,0,0,1-1,.81q-4.17,3.45-8.43,6.94-3.47,2.85-6.94,5.72a1.38,1.38,0,0,1-.79.65c-11.13,9.21-22.12,18.61-31,28-11.33,11.19-35.82,40-19.28,66.58,5.74,9.76,18.56,14.35,29.85,10.73a23,23,0,0,0,6.82-2.94c11.49-7,19.9-19.91,25-38.49.07-.27,6.89-28.67,4-53.85-4.12,3.35-8.25,6.76-12.34,10.24,0,2.14-.07,3.42-.12,4.83,0,1.13-.09,2.41-.13,4.32l5.48,4.56a1.38,1.38,0,0,1-.88,2.44,1.4,1.4,0,0,1-.88-.32L203,225.82c-.94.86-1.87,1.74-2.8,2.61l14.3,12.62a1.38,1.38,0,0,1-.92,2.41,1.39,1.39,0,0,1-.91-.34l-2.77-2.45a93.14,93.14,0,0,1-1.92,13l3.28,2.37a1.37,1.37,0,0,1,.31,1.92,1.38,1.38,0,0,1-1.92.31l-4-2.91h0L187,241.85c-1.54,1.73-3,3.5-4.49,5.3l26.73,17.64a1.37,1.37,0,0,1,.39,1.9,1.36,1.36,0,0,1-1.15.62,1.4,1.4,0,0,1-.76-.22L204.55,265a98.58,98.58,0,0,1-5.15,10.76c1.59,1,2.75,1.68,3.13,2a1.38,1.38,0,0,1,.28,1.93,1.4,1.4,0,0,1-1.11.55,1.36,1.36,0,0,1-.82-.28c-1.71-1.28-21.16-12.55-29.68-17.46a38.77,38.77,0,0,0-3.17,6.66L197,285.24a1.38,1.38,0,0,1-.67,2.58,1.45,1.45,0,0,1-.67-.17l-4.4-2.45a18,18,0,0,1-12.45,4.9,17.41,17.41,0,0,1-4-.46,13.42,13.42,0,0,1-10.26-10c-2.77-11,7.22-23.51,13.82-31.77l1-1.29c2-2.52,4.1-4.94,6.25-7.32,0,0,0-.06,0-.08a1.18,1.18,0,0,1,.26-.24Q191.25,233,197,227.61s0-.06.05-.08a1.28,1.28,0,0,1,.22-.17c1.51-1.42,3-2.84,4.58-4.23v0L202,223c2.06-1.84,4.13-3.66,6.23-5.45l.13-.11c5.31-4.54,10.71-8.94,16-13.28,7.69-6.25,15.65-12.71,23.12-19.46C260,173.48,276.4,153.1,281.19,139.8c4.58-12.71,3.52-21,2.33-26.16a1.38,1.38,0,1,1,2.68-.62C288.22,121.73,287.45,130.54,283.78,140.73Z"/><path class="cls-2" d="M225.33,178.72c-.08.7-.14,1.39-.21,2.09l1.52-1.27Z"/><path class="cls-2" d="M244.18,164l-14.55-9c-1.11,4.38-2.06,8.76-2.81,13.08l7.06,5.32C237.49,170.2,241,167.08,244.18,164Z"/></g><g id="Layer_2-2" data-name="Layer 2"><path class="cls-5" d="M160.71,362.79V343.6H176.8v1.71l-1.17-.75s-7.78-1-10.44,5.44a58,58,0,0,0-3.55,12.84Z"/><path class="cls-5" d="M198.62,343.6v17.62h-.85c.11-2.46.06-7.25-1.64-11.25-2.54-6-12.12-5.41-12.12-5.41l-1.17.75V343.6Z"/><rect class="cls-5" x="175.51" y="343.6" width="8.56" height="39.9"/><path class="cls-5" d="M170.83,385.85s4.24-.43,4.68-2.63l8.56-.1s.25,2.14,3.25,2.78C187.32,385.9,170.87,385.8,170.83,385.85Z"/><rect class="cls-5" x="167.02" y="385.85" width="25.55" height="0.44" rx="0.22"/><path class="cls-5" d="M236.77,344H218.15a.22.22,0,0,1-.22-.23h0a.22.22,0,0,1,.22-.22h18.62a.22.22,0,0,1,.22.22h0A.22.22,0,0,1,236.77,344Z"/><path class="cls-5" d="M203.82,344h-9.34a.22.22,0,0,1-.22-.22h0a.22.22,0,0,1,.22-.22h8.92"/><path class="cls-5" d="M198.76,378.65V354.71a.45.45,0,0,0-.45-.45h0a.45.45,0,0,0-.45.45v24.13c-.67,6.1-5.37,7-5.37,7l11.42,0a8.7,8.7,0,0,1-5.15-7.23Z"/><path class="cls-5" d="M228.4,351.78a9,9,0,0,1,5.37-7.79L222,344a9.87,9.87,0,0,1,5.54,7.62V375a.45.45,0,0,0,.45.45h0a.45.45,0,0,0,.45-.45"/><polygon class="cls-5" points="198.65 349.72 226.93 386.33 228.4 386.33 228.4 374.59 227.49 374.45 203.5 343.6 198.19 343.6 198.65 349.72"/><rect class="cls-5" x="188.42" y="385.85" width="19.57" height="0.44" rx="0.22"/><rect class="cls-5" x="197.87" y="343.61" width="0.9" height="12.88"/><ellipse class="cls-6" cx="247.8" cy="364.94" rx="20.28" ry="22"/><path class="cls-1" d="M248,386.06c6.24,0,10.66-5,10.93-21.39.26-16.1-4.82-20.92-11.07-20.92h-.26c-6.24,0-11.33,4.82-11.06,20.92.27,16.43,4.69,21.39,10.93,21.39Z"/><path class="cls-6" d="M268.86,386.83l-.9-.1A26.14,26.14,0,0,1,267,393s-2.07,5.82-6,3.76-2.48-4.05-5.15-12.27c-1.21-3.76-2.79-5.78-4.15-6.86a5.55,5.55,0,0,0-1.37-.86,4,4,0,0,0-1.55-.41,5.41,5.41,0,1,0,1.08,10.52,19,19,0,0,0,.36,6.8c1,4.79,6.52,6.83,9.87,6.55a9.28,9.28,0,0,0,7.48-5.93A24,24,0,0,0,268.86,386.83Z"/><path class="cls-7" d="M249.81,386.15a1.69,1.69,0,0,0,.59-1,16.75,16.75,0,0,0,.47-4.52,3.6,3.6,0,0,0-.83-2.38c-1-1.06-2.76-.81-4-.25a4.38,4.38,0,0,0-1.72,6.49,5,5,0,0,0,4.92,1.91A1.34,1.34,0,0,0,249.81,386.15Z"/></g></g></svg>