<svg xmlns="http://www.w3.org/2000/svg" viewBox="0 0 429.58 429.58"><defs><style>.cls-1{fill:#fff;}.cls-2{fill:#ab8549;}.cls-3{fill:#c09a4a;}.cls-4{fill:#020202;}.cls-5{fill:#030303;}.cls-6{fill:#54baea;}</style></defs><g id="Layer_2" data-name="Layer 2"><g id="Layer_1-2" data-name="Layer 1"><path class="cls-1" d="M214.79,428.23c-117.7,0-213.45-95.75-213.45-213.44A213.46,213.46,0,0,1,214.79,1.34c117.69,0,213.44,95.75,213.44,213.45S332.48,428.23,214.79,428.23Z"/><path class="cls-2" d="M214.79,2.69a212.15,212.15,0,0,1,82.56,407.53A212.16,212.16,0,0,1,132.23,19.35,210.75,210.75,0,0,1,214.79,2.69m0-2.69C96.16,0,0,96.16,0,214.79S96.16,429.58,214.79,429.58s214.79-96.17,214.79-214.79S333.41,0,214.79,0Z"/><path class="cls-3" d="M72.16,325.24l-8.85,4.37,6.61-7.33-8.22-5.49,9.65,2L72,309l3.07,9.39L83.9,314l-6.59,7.35,8.22,5.48-9.67-2-.63,9.85Z"/><path class="cls-3" d="M359.63,322.32l6.59,7.34-8.84-4.38-3.07,9.38-.64-9.84-9.65,2,8.21-5.48L345.64,314l8.84,4.38,3.08-9.39.63,9.86,9.66-2Z"/><path d="M68.29,271.32c.24-.1.43,0,.58.35l.18.42a58.07,58.07,0,0,0,2.34,5.78q.45,1,1,2.07c.19.35.44.91.77,1.67.16.36.11.6-.14.71s-.51-.22-.85-.93c-.52-1.11-.93-1.72-1.26-1.81a6,6,0,0,0-2.55.75l-22.21,9.58a6.8,6.8,0,0,0-2.23,1.21c-.21.29,0,1.15.5,2.56.21.55.23.87.06.94s-.41,0-.56-.36l-2.47-5.73c-.18-.42-.52-1.25-1-2.48l-.74-1.59c-.2-.45-.17-.73.07-.84s.61.48,1.2,1.71c.34.7.65,1.07.94,1.14a4.44,4.44,0,0,0,1.87-.53l22.48-9.69a8.09,8.09,0,0,0,2.52-1.34c.17-.44,0-1.43-.64-3C68,271.63,68.05,271.43,68.29,271.32Z"/><path d="M29.88,251.24c.3-.08.53.25.71,1l.27,1,.22.79c.13.48.29.73.47.78a4.74,4.74,0,0,0,1.52-.28l25.4-7.06c1.56-.43,2.47-.67,2.75-.71s.43,0,.47.15-.06.43-.32.75l-6.7,7.94q-5.87,6.92-14.74,16.95l24.73-6.86a.82.82,0,0,0,.55-.88,21,21,0,0,0-.63-3c-.11-.39,0-.61.19-.68s.55.26.76,1c.07.26.26,1.11.56,2.55.11.48.22.94.34,1.38l.3.75c.21.53.47,1.35.78,2.47l.13.44c.19.68.15,1.05-.12,1.13s-.48-.19-.64-.77a8.9,8.9,0,0,0-1.17-2.94c-.27-.22-.94-.19-2,.1l-21.8,6.06q-3.67,1-4.19,2.78a5.29,5.29,0,0,0,.26,2.64c.21.77.16,1.19-.15,1.28s-.48-.11-.6-.55q-.24-.89-.54-2.28c-.19-.92-.3-1.42-.31-1.48s-.16-.49-.39-1.22c-.27-1-.58-1.9-.92-2.79l18.51-21.55-19.65,5.45a16.15,16.15,0,0,0-1.64.51.6.6,0,0,0-.35.47,8,8,0,0,0,.44,2.17c.29,1.06.31,1.62,0,1.7s-.54-.23-.73-.94l-.43-1.55c-.11-.38-.22-.79-.35-1.23s-.2-.75-.23-.84l-.22-.8c-.13-.47-.25-.91-.37-1.32l-.38-1.37C29.53,251.69,29.59,251.33,29.88,251.24Z"/><path d="M49.26,223a8.8,8.8,0,0,1,7,2.25,10.31,10.31,0,0,1,3.54,6.88,15,15,0,0,1-.86,6,4,4,0,0,0-.26,1.41c0,.36.49.55,1.34.55.44,0,.68.15.72.52s-.14.47-.5.51a2.76,2.76,0,0,1-.55,0,38.84,38.84,0,0,0-5.19.2c-.3,0-1.15.15-2.54.37a4.41,4.41,0,0,1-.73.12c-.45,0-.7-.1-.74-.47s.31-.56,1-.76q8.07-2.08,7.35-8.6a5.74,5.74,0,0,0-2-4.13,6.17,6.17,0,0,0-4.61-1,6.66,6.66,0,0,0-4.19,2,15.54,15.54,0,0,0-3,5.47,19,19,0,0,1-3.49,6.47A7.47,7.47,0,0,1,36.75,243a8.56,8.56,0,0,1-6.51-1.75,8.4,8.4,0,0,1-3.14-5.9,13.1,13.1,0,0,1,.58-4.4,4.77,4.77,0,0,0,.21-1.45.94.94,0,0,0-.25-.65,2.63,2.63,0,0,0-1-.19.48.48,0,0,1-.51-.45c0-.3.13-.47.49-.51a2.78,2.78,0,0,1,.55,0,22.72,22.72,0,0,0,2.66-.15,20.18,20.18,0,0,0,3.44-.61l.72-.12c.34-.07.52,0,.55.35s-.29.6-1,.8a8.13,8.13,0,0,0-4.23,2.86A6,6,0,0,0,28,235.2a4.75,4.75,0,0,0,1.85,3.46,5.66,5.66,0,0,0,4.12.91,6.06,6.06,0,0,0,4.47-2.47,24.06,24.06,0,0,0,2.31-5,19.65,19.65,0,0,1,3.67-6.63A7.65,7.65,0,0,1,49.26,223Z"/><path d="M34.51,198.21a7.83,7.83,0,0,1,6.81,4,10.84,10.84,0,0,1,1.38,6.09,22.41,22.41,0,0,1-.42,3.52l13,.37a5.45,5.45,0,0,0,1.33,0,1.21,1.21,0,0,0,.81-1,19.32,19.32,0,0,0,.26-2.56c0-.33.12-.5.33-.49s.45.23.44.65c0,.19,0,.34,0,.46q-.08,2.52-.28,9.49v.59c0,.92-.2,1.37-.5,1.36s-.31-.33-.3-1c0-1.43-.07-2.26-.34-2.49-.11-.24-.41-.39-.9-.43L29.05,216c-.95,0-1.54.22-1.77.73a4.82,4.82,0,0,0-.23,1.6v.46a3.11,3.11,0,0,0,0,.32c0,.46-.15.68-.39.68s-.4-.44-.38-1.3l.3-10.08q.15-5.22,2.05-7.6A6.86,6.86,0,0,1,34.51,198.21Zm-.1,4.81q-6.91-.2-7.08,5.58a3.5,3.5,0,0,0,.57,2.54,2.39,2.39,0,0,0,1.42.31l12.27.36a6.61,6.61,0,0,0,.07-.83,9.39,9.39,0,0,0-1.19-5.17C39.41,204,37.4,203.11,34.41,203Z"/><path d="M60.36,186.42c.26,0,.36.23.31.59l-.07.46q-.16.25-1,6.15c-.11.76-.18,1.52-.23,2.28,0,.4-.1,1-.22,1.82-.05.4-.22.57-.49.54s-.32-.45-.24-1.24c.15-1.22.1-2-.12-2.2a5.86,5.86,0,0,0-2.58-.69L31.77,190.7a7,7,0,0,0-2.54-.13c-.33.15-.63,1-.91,2.45-.11.58-.26.86-.44.83s-.34-.23-.29-.6l.89-6.17c.06-.46.21-1.34.42-2.65l.21-1.74c.07-.49.23-.72.49-.68s.28.73.14,2.08c-.08.77,0,1.26.21,1.46a4.19,4.19,0,0,0,1.87.53l24.23,3.47a7.87,7.87,0,0,0,2.84.17c.38-.28.72-1.24,1-2.86C60,186.53,60.1,186.38,60.36,186.42Z"/><path d="M66.24,159.52c1.23.34,1.57,1.54,1,3.6a6.37,6.37,0,0,1-4.36,4.6,6.9,6.9,0,0,1-2.68.43q-1.22-.08-6-.88a5.59,5.59,0,0,0-4.49.71q-1.61,1.23-2.65,4.69l13.92,3.84c.59.16,1.09-.21,1.49-1.11.11-.26.32-.93.65-2,.11-.38.28-.55.51-.48s.33.36.19.86l-.14.53c-.08.27-.43,1.55-1.06,3.85L62,180.4c-.29,1-.47,1.71-.56,2l-.48,1.73c-.17.64-.4.93-.66.86s-.21-.52,0-1.38q.52-2.08.09-2.4a4.35,4.35,0,0,0-1.68-.65l-24.39-6.72q-1.77-.48-2.22-.21a4.48,4.48,0,0,0-1,2.17c-.2.73-.44,1.07-.7,1s-.38-.35-.25-.83c0-.08.08-.21.16-.38L32,169.77c.16-.59.37-1.42.62-2.49s.43-2,.56-2.51a11,11,0,0,1,3.63-6,6.14,6.14,0,0,1,5.64-1,6.54,6.54,0,0,1,4.42,3.88,12.36,12.36,0,0,1,.51,7.37c0,.27,0,.43,0,.47s.21-.09.29-.39c1.39-3,3.06-4.77,5-5.49s5.13-.67,9.52.13q3.73.65,4.32-1.47c.12-.45.09-.69-.08-.74a.12.12,0,0,0-.1,0,2,2,0,0,1-.86,0,.87.87,0,0,1-.66-1.23A1,1,0,0,1,66.24,159.52Zm-24.66,3c-4.22-1.16-6.82.08-7.83,3.74a3.62,3.62,0,0,0-.15,2.1,1.72,1.72,0,0,0,1.27.91l11.22,3.1c.81-2.82.86-5,.14-6.55S44,163.22,41.58,162.57Z"/><path d="M72.28,148.85c.24.1.29.32.15.65l-.18.43a58.76,58.76,0,0,0-2.53,5.7c-.29.7-.56,1.42-.79,2.15-.13.37-.35.94-.67,1.71-.15.36-.36.49-.61.39s-.2-.52.08-1.26c.44-1.14.59-1.86.43-2.16a5.88,5.88,0,0,0-2.32-1.31l-22.31-9.32a6.79,6.79,0,0,0-2.43-.76c-.35.05-.85.77-1.49,2.14-.25.53-.46.76-.64.69s-.26-.31-.12-.65l2.4-5.76c.18-.42.54-1.24,1.08-2.45L43,137.4c.19-.45.41-.63.65-.53s.08.77-.39,2c-.27.73-.32,1.22-.17,1.47a4.44,4.44,0,0,0,1.68,1l22.59,9.43a8.14,8.14,0,0,0,2.71.88c.44-.18,1-1,1.7-2.52C71.86,148.85,72,148.75,72.28,148.85Z"/><path d="M60,107.27c.26.15.19.55-.23,1.19l-.51.87-.42.72c-.24.42-.32.71-.22.87a4.54,4.54,0,0,0,1.25.9l22.73,13.36c1.39.81,2.2,1.31,2.42,1.47s.3.32.22.45-.35.25-.76.29l-10.36.7q-9.06.6-22.44,1.19l22.13,13a.82.82,0,0,0,1-.22,19.29,19.29,0,0,0,1.75-2.57c.2-.34.41-.46.62-.33s.19.57-.21,1.26c-.14.23-.62,1-1.44,2.18-.27.41-.53.81-.76,1.2,0,0-.09.22-.33.74a24.43,24.43,0,0,1-1.23,2.28l-.23.39c-.36.61-.66.84-.89.7s-.21-.47.1-1a9,9,0,0,0,1.3-2.88c0-.35-.51-.8-1.46-1.36L52.56,131.21q-3.29-1.92-4.91-1.07a5.29,5.29,0,0,0-1.72,2q-.6,1-1,.78c-.25-.15-.26-.42,0-.81s.73-1.18,1.26-2S47,129,47,128.9s.25-.45.61-1.13a27.13,27.13,0,0,0,1.37-2.6l28.37-1.67L59.75,113.17q-1.23-.72-1.5-.84a.64.64,0,0,0-.59.09,8,8,0,0,0-1.25,1.81c-.56,1-.95,1.36-1.19,1.22s-.21-.55.16-1.18l.81-1.39c.21-.34.42-.71.65-1.1s.4-.68.45-.75.15-.27.41-.72l.7-1.18.72-1.23C59.46,107.33,59.76,107.11,60,107.27Z"/><path d="M100,93.67c.19.16.19.34,0,.55l-.69.8c-1,1-1.3,1.78-1,2.28a21.45,21.45,0,0,0,2.88,2.74l1.1.95a15.42,15.42,0,0,1-.83,5.27,14.63,14.63,0,0,1-2.79,4.46q-4.74,5.48-10.81,5.85t-11.67-4.49q-5.69-4.92-6.44-11.11a14.07,14.07,0,0,1,3.72-11.34,15.56,15.56,0,0,1,5.51-3.84,4.24,4.24,0,0,0,1.52-1,1.19,1.19,0,0,0-.08-1.59c-.22-.39-.26-.67-.12-.83a.32.32,0,0,1,.52,0c.07.06.29.29.67.69,1.21,1.27,2.1,2.15,2.68,2.65l2.25,2,1.1.9c.52.53.66.92.44,1.17s-.44.18-.78-.08a10.92,10.92,0,0,0-7-2.66,7.93,7.93,0,0,0-6,3,8.56,8.56,0,0,0-1.72,8.5q1.41,4.89,7,9.72,5.36,4.63,10.34,5.24a8.77,8.77,0,0,0,8.14-3c1.61-1.84,2.18-3.57,1.73-5.18a7.33,7.33,0,0,0-2.41-3c-1.15-1-1.92-1.48-2.32-1.44s-1.15.72-2.25,2a3.23,3.23,0,0,1-.59.58.28.28,0,0,1-.34-.06c-.25-.22-.16-.58.28-1.09l.54-.62c.32-.33,1.39-1.55,3.19-3.67L98.27,95l.45-.52.33-.38C99.45,93.63,99.76,93.49,100,93.67Z"/><path d="M123.78,76.27a8.75,8.75,0,0,1,1.62,7.17A10.26,10.26,0,0,1,121.29,90a15,15,0,0,1-5.64,2.33,3.81,3.81,0,0,0-1.35.5c-.29.22-.22.69.21,1.42.24.37.21.67-.08.89s-.48.12-.7-.17a2.87,2.87,0,0,1-.29-.47,39.71,39.71,0,0,0-2.81-4.36c-.19-.25-.72-.91-1.61-2a4.35,4.35,0,0,1-.48-.56c-.28-.37-.27-.66,0-.88s.64,0,1.18.5q5.9,5.88,11.14,2a5.75,5.75,0,0,0,2.52-3.86,6.2,6.2,0,0,0-1.45-4.5,6.72,6.72,0,0,0-3.82-2.61,15.47,15.47,0,0,0-6.25.19,19,19,0,0,1-7.34.29,7.51,7.51,0,0,1-4.35-3,8.42,8.42,0,0,1,1.68-12.2A13.16,13.16,0,0,1,106,61.72a4.52,4.52,0,0,0,1.36-.55c.27-.2.41-.39.42-.55a2.42,2.42,0,0,0-.34-.95.49.49,0,0,1,.13-.67c.24-.18.48-.12.7.17a2.51,2.51,0,0,1,.29.47A24.29,24.29,0,0,0,110,61.85a21.15,21.15,0,0,0,2.28,2.65l.47.56c.23.25.22.46,0,.65s-.66.06-1.18-.43a8.17,8.17,0,0,0-4.61-2.19,6,6,0,0,0-4.46,1.08,4.69,4.69,0,0,0-2,3.36,5.62,5.62,0,0,0,1.31,4,6.06,6.06,0,0,0,4.41,2.6,24.37,24.37,0,0,0,5.52-.58,19.29,19.29,0,0,1,7.57-.21A7.58,7.58,0,0,1,123.78,76.27Z"/><path d="M149.05,61s.13.33.49,1.14c.71,1.63,1.45,3.17,2.22,4.64a10.5,10.5,0,0,0,.6,1,18.87,18.87,0,0,1,1,1.76l.19.37c.18.35.17.58-.05.7s-.51,0-.89-.31a4.75,4.75,0,0,0-2-1.16,11.64,11.64,0,0,1-5.68,6.24,14.69,14.69,0,0,1-12.07,1,16.57,16.57,0,0,1-9.42-8.44q-3.33-6.38-1.85-12.3a13.36,13.36,0,0,1,7.16-8.9,14.29,14.29,0,0,1,3.49-1.38,15.65,15.65,0,0,1,3.8-.21,3.51,3.51,0,0,0,1.61-.17c.25-.13.37-.47.35-1,0-.94.05-1.47.26-1.59a.33.33,0,0,1,.5.16,3.66,3.66,0,0,1,.19.57,43.85,43.85,0,0,0,3.38,7.54c.27.52.39.84.35,1a.52.52,0,0,1-.26.29c-.27.14-.58,0-.93-.49a15.58,15.58,0,0,0-4-4,7.69,7.69,0,0,0-8,0,7.4,7.4,0,0,0-4,4.92Q124,58,128,65.6q3.56,6.78,8.35,9a8.89,8.89,0,0,0,8.28-.2A8.29,8.29,0,0,0,148,71.38a7.92,7.92,0,0,0,1.2-4.23,18.22,18.22,0,0,0-.86-5.29c-.23-.71-.22-1.12,0-1.25S148.83,60.6,149.05,61Z"/><path d="M167.12,65.17c.09.25,0,.43-.39.55l-.43.16a60.9,60.9,0,0,0-5.91,2c-.72.26-1.42.55-2.12.86-.36.17-.93.39-1.71.67-.37.14-.61.07-.7-.18s.24-.5,1-.8c1.14-.44,1.77-.82,1.88-1.14a6,6,0,0,0-.6-2.6L149.9,41.94a7,7,0,0,0-1.07-2.3c-.28-.22-1.15-.11-2.59.35-.57.18-.88.17-.94,0s0-.41.4-.53l5.86-2.12c.43-.16,1.28-.45,2.53-.87l1.64-.64c.46-.17.74-.13.83.12s-.51.58-1.77,1.1q-1.08.44-1.2.87a4.41,4.41,0,0,0,.42,1.89l8.32,23a8,8,0,0,0,1.18,2.6q.65.3,3-.45C166.83,64.86,167,64.93,167.12,65.17Z"/><path d="M190.87,52.18c0,.12.16.86.4,2.22s.5,2.64.78,3.86l.33,1.48q-4.44.72-17.41,3.63l-3.09.69-2.06.46-.44.1c-.57.13-.88.07-.94-.17a.29.29,0,0,1,.21-.34l1.67-.5c.76-.23,1.2-.5,1.3-.81a5.36,5.36,0,0,0-.23-2.16l-5.66-25.21q-.28-1.3-.72-1.47a7.06,7.06,0,0,0-2.5.3c-.47.11-.74,0-.8-.22s.25-.45.9-.6l7.65-1.71,5.05-1.14,6.26-1.4a16.56,16.56,0,0,0,2.42-.73c.35,1.26.88,3,1.6,5.23l.61,1.88a3.9,3.9,0,0,1,.18.57c.06.3,0,.48-.31.54s-.65-.25-1-1c-1.18-2.58-2.48-4.08-3.93-4.51-1.07-.33-3.64,0-7.69.87l-3.67.83,3,13.14,1.07-.24q5-1.12,5.94-2.13t.5-4.76c-.08-.64,0-1,.28-1.05s.56.16.68.69.26,1.34.44,2.39.32,1.86.44,2.39q1.08,4.8,1.62,6.55.13.44.21.75.12.59-.36.69a.45.45,0,0,1-.51-.28c-.13-.24-.44-1-.94-2.4-.63-1.71-1.6-2.63-2.91-2.78a19.27,19.27,0,0,0-4.25.67L173,47l3.36,15q9.84-2.22,11.45-3c1.87-.89,2.57-3,2.09-6.41q-.16-1.12.33-1.23C190.51,51.28,190.73,51.56,190.87,52.18Z"/><path d="M220,26.44c0,.3-.36.46-1.13.46l-1,.05-.82,0c-.49,0-.77.12-.86.3a4.78,4.78,0,0,0-.06,1.53l1.27,26.34c.08,1.61.11,2.56.09,2.83s-.1.42-.25.43-.4-.15-.66-.48l-6.27-8.28Q204.88,42.4,197,31.54l1.24,25.63a.82.82,0,0,0,.73.73,19.89,19.89,0,0,0,3.11.05c.4,0,.61.1.62.34s-.37.48-1.17.52c-.27,0-1.14,0-2.61,0-.49,0-1,0-1.42,0l-.8.13c-.56.09-1.42.16-2.58.22l-.46,0c-.7,0-1.06-.09-1.07-.36s.28-.43.89-.46a8.67,8.67,0,0,0,3.12-.5c.28-.21.39-.87.34-2l-1.09-22.6q-.18-3.81-1.79-4.69a5.17,5.17,0,0,0-2.63-.34c-.79,0-1.2-.1-1.21-.42s.21-.45.66-.47c.61,0,1.39,0,2.34,0l1.52,0,1.28-.11c1-.05,2-.14,2.92-.28l16.93,22.82-1-20.38c-.05-.94-.09-1.51-.13-1.71a.61.61,0,0,0-.39-.44,7.77,7.77,0,0,0-2.2-.05c-1.1.05-1.66-.06-1.67-.34s.34-.47,1.08-.51l1.6-.08,1.28-.06.87,0,.82,0,1.38-.07L219,26C219.66,26,220,26.13,220,26.44Z"/><path d="M249.82,51.26c0-.06-.08.35-.25,1.22-.36,1.74-.65,3.42-.86,5.06a9.81,9.81,0,0,0-.06,1.13,19.83,19.83,0,0,1-.18,2l-.05.41c-.06.39-.2.57-.45.54s-.42-.29-.54-.76a4.76,4.76,0,0,0-1-2.13,11.69,11.69,0,0,1-8.25,1.82,14.68,14.68,0,0,1-10.44-6.13,16.61,16.61,0,0,1-2.82-12.33Q225.86,35,230.48,31a13.39,13.39,0,0,1,11-3.14,14.65,14.65,0,0,1,3.65.88,16.15,16.15,0,0,1,3.22,2,3.32,3.32,0,0,0,1.42.79c.27,0,.56-.17.87-.62.51-.79.88-1.18,1.12-1.14a.32.32,0,0,1,.32.41,3.38,3.38,0,0,1-.17.58,43.36,43.36,0,0,0-1.59,8.11,2.07,2.07,0,0,1-.27,1,.49.49,0,0,1-.38.09c-.3,0-.46-.36-.48-.94a15.42,15.42,0,0,0-1-5.63,7.65,7.65,0,0,0-6.51-4.57,7.35,7.35,0,0,0-6.14,1.68q-4.45,3.89-5.58,12.39-1,7.59,1.61,12.19a8.86,8.86,0,0,0,6.88,4.61,8.37,8.37,0,0,0,4.47-.58,8,8,0,0,0,3.42-2.76,18.77,18.77,0,0,0,2.35-4.82c.22-.71.46-1.05.74-1S249.88,50.81,249.82,51.26Z"/><path d="M276,62.23c0,.12-.29.82-.76,2.12s-.9,2.53-1.28,3.73l-.45,1.44q-4.2-1.62-16.88-5.61l-3-.95-2-.64-.43-.14c-.56-.17-.8-.38-.72-.61a.26.26,0,0,1,.34-.19l1.7.4c.78.19,1.29.17,1.53,0a5.38,5.38,0,0,0,.89-2l7.78-24.64c.26-.85.3-1.39.1-1.63a6.57,6.57,0,0,0-2.3-1c-.47-.15-.66-.35-.59-.59s.44-.27,1.08-.07l7.48,2.36,4.94,1.56,6.12,1.93a16,16,0,0,0,2.46.58q-.51,1.91-1.25,5.33l-.42,1.93a2.81,2.81,0,0,1-.14.58c-.09.29-.27.4-.53.32s-.44-.55-.35-1.33q.42-4.22-1.13-5.87c-.76-.82-3.13-1.85-7.09-3.1L267.47,35l-4.05,12.85,1.05.33q4.89,1.55,6.2,1.14t2.83-3.87c.25-.59.51-.85.77-.76s.4.41.23.93-.44,1.29-.82,2.29-.65,1.77-.81,2.29q-1.49,4.68-1.89,6.47c-.07.3-.14.55-.2.76-.12.38-.34.51-.66.41s-.3-.23-.29-.5a23.57,23.57,0,0,1,.39-2.54c.31-1.79-.06-3.08-1.12-3.86a19.27,19.27,0,0,0-4-1.56l-2-.62L258.51,63.4q9.62,3,11.4,3.17c2.06.17,3.73-1.32,5-4.49.29-.71.59-1,.91-.9S276.18,61.62,276,62.23Z"/><path d="M306.82,86.86c-.13.22-.4.22-.79,0a6.09,6.09,0,0,1-.7-.45l-4.95-3.07-5.13-2.75a4.48,4.48,0,0,1-.62-.31c-.53-.3-.71-.59-.55-.87s.62-.25,1.34.16q3.51,2,3.89,1.32a2.1,2.1,0,0,0,.1-.36l.28-1.24.12-.67c.24-1,.7-3.11,1.4-6.45l-8.49-4.9q-6,5-6.59,5.93a.7.7,0,0,0,.08,1c.07.07.7.51,1.9,1.31.75.47,1.06.82.92,1.06s-.57.2-1.26-.2c-1.22-.7-2.6-1.58-4.16-2.61-.38-.26-.78-.51-1.21-.75a6,6,0,0,0-1.3-.58,4.2,4.2,0,0,1-.56-.23c-.37-.22-.48-.44-.34-.68s.63-.13,1.47.32a4.46,4.46,0,0,0,2,.67,2.71,2.71,0,0,0,1.62-.79q13.57-11.71,21.91-18.74a4.92,4.92,0,0,1,1-.84l.59-.63c.25-.24.44-.33.57-.25s.1.16.06.35Q309,53.4,308,59.37q-.79,4.68-4.06,23.44a2.14,2.14,0,0,0,.15,1.61A6.91,6.91,0,0,0,306,85.89C306.67,86.31,307,86.63,306.82,86.86Zm-5.27-15.72q.39-2.16,1.28-7.15l1.27-6.6q-4.22,3.42-10.62,9.09Z"/><path d="M357.19,90.15c-.17.19-.65-.05-1.44-.73a2.45,2.45,0,0,0-2.49-.7A40.26,40.26,0,0,0,348.82,91q-5.74,3.27-9.88,5.47-7.08,3.73-13.44,7.44c-.36.21-.61.25-.75.13s-.13-.32,0-.64.5-1.39,1.22-3.2c1-2.35,1.88-4.75,2.76-7.22.69-1.94,1.42-3.91,2.21-5.92q-7.56,3.62-15.55,7.77c-.33.18-.57.22-.71.09s-.07-.42.12-1q1.22-3.47,11-27.92a10.71,10.71,0,0,0,.74-2.26c0-.36-.25-.83-.87-1.43q-1.56-1.54-1.2-1.95c.19-.2.46-.14.82.18a2.75,2.75,0,0,1,.38.41q1.71,1.73,3.79,3.6c.27.25.76.65,1.47,1.21s1.6,1.32,2.66,2.28l.38.34c.38.34.48.62.29.83s-.7.08-1.42-.53c-1.44-1.21-2.3-1.66-2.6-1.33q-.85.95-9.75,23.37c5-2.46,8.66-4.27,11-5.4L336,73.63a2.35,2.35,0,0,0,.19-1.49,4.16,4.16,0,0,0-1.1-1.42c-.62-.6-.84-1-.68-1.17s.57-.16,1.05.27.78.75,1.26,1.27,1.37,1.35,2.66,2.52L342,75.94l3.74,3.38c.84.76,1.88,1.64,3.13,2.63a4.84,4.84,0,0,1,.5.4c.54.49.71.86.49,1.1s-.48.14-.87-.2l-.57-.53A7,7,0,0,0,345.71,81c-.33-.09-1.48.35-3.46,1.31l-4.29,2-2,1q-.37.89-1.92,5.12-1.94,5.4-3.44,9.16l16.27-9a48.73,48.73,0,0,0,5.39-3.2c.39-.44.19-1-.61-1.73-1.11-1-1.55-1.63-1.33-1.88s.54-.14,1,.27a9,9,0,0,1,.88.88,16.36,16.36,0,0,0,1.28,1.32l2.72,2.45a4.92,4.92,0,0,1,1.05,1.1A.31.31,0,0,1,357.19,90.15ZM342.45,77.54l-.41-.37-.57-.52c-.86-.69-1.4-.91-1.63-.66,0,.05-1.16,2.62-3.34,7.73,1.54-.67,3.51-1.62,5.88-2.85.32-.17.76-.37,1.32-.61l.31-.2Q344.57,79.45,342.45,77.54Z"/><path d="M351.2,135.85q-.31.22-.72-.33a7.94,7.94,0,0,1-.45-.69L346.77,130l-3.56-4.61a4,4,0,0,1-.44-.53q-.54-.73-.15-1c.29-.21.67,0,1.15.69,1.61,2.16,2.61,3.1,3,2.8A2.22,2.22,0,0,0,347,127l.76-1,.38-.57c.61-.78,1.91-2.55,3.92-5.31l-5.75-7.94c-5,1.38-7.85,2.28-8.44,2.71a.71.71,0,0,0-.31.91c0,.09.43.74,1.19,2,.5.74.64,1.18.41,1.35s-.6-.06-1.07-.7q-1.23-1.71-2.72-4.08c-.25-.39-.51-.78-.8-1.18a6.09,6.09,0,0,0-1-1.06,3.75,3.75,0,0,1-.41-.44c-.25-.35-.26-.6,0-.76s.63.14,1.22.9a4.45,4.45,0,0,0,1.58,1.43,2.61,2.61,0,0,0,1.8-.06Q355,108,365.44,105a5.3,5.3,0,0,1,1.23-.37l.8-.33c.32-.12.53-.12.62,0s0,.19-.09.35q-1.1,1.53-4.47,6.57-2.62,3.94-13.27,19.73a2.17,2.17,0,0,0-.52,1.53,6.65,6.65,0,0,0,1.11,2.11C351.29,135.29,351.41,135.7,351.2,135.85Zm1.62-16.49,4.08-6,3.86-5.51c-3.5.94-8,2.26-13.41,4Z"/><path d="M362.41,157.08q-1.73.85-3.15-2a6.39,6.39,0,0,1,.18-6.33,7,7,0,0,1,1.72-2.1c.64-.51,2.33-1.63,5.09-3.37a5.57,5.57,0,0,0,2.88-3.53c.25-1.31-.13-3.07-1.15-5.26L355,140.89c-.54.27-.67.87-.37,1.82.09.26.38.9.85,1.93.18.35.16.59-.06.7s-.49-.05-.72-.52l-.24-.49-1.77-3.57-1-2.1-.94-1.89-.79-1.6c-.3-.6-.33-1-.08-1.09s.5.25.92,1c.66,1.28,1.17,1.89,1.53,1.85a4.52,4.52,0,0,0,1.68-.63l22.67-11.24q1.65-.81,1.8-1.32a4.5,4.5,0,0,0-.68-2.3c-.34-.69-.38-1.09-.14-1.21s.52,0,.74.45a3.19,3.19,0,0,1,.14.39l2.58,5.53c.28.54.67,1.3,1.2,2.27s1,1.81,1.25,2.24a11,11,0,0,1,1.3,6.91,6.14,6.14,0,0,1-3.51,4.52,6.56,6.56,0,0,1-5.89.06,12.5,12.5,0,0,1-5.29-5.16c-.15-.23-.26-.35-.33-.35s-.09.22,0,.5c.94,3.12.91,5.59-.08,7.43s-3.38,3.92-7.19,6.25q-3.21,2-2.24,4c.21.41.39.58.56.5a.28.28,0,0,0,.06-.08,2,2,0,0,1,.64-.58.88.88,0,0,1,1.31.48A1,1,0,0,1,362.41,157.08Zm16.36-18.7q5.87-2.91,3.35-8a3.63,3.63,0,0,0-1.29-1.66,1.72,1.72,0,0,0-1.56.15l-10.43,5.18c1.28,2.64,2.7,4.29,4.26,5S376.55,139.48,378.77,138.38Z"/><path d="M384.59,181.51q-7.79,2.22-13.66-2-4.31-3.06-6.2-9.72c0-.12-.19-.64-.45-1.57l-1.15-4-.62-2.21-1-3.48c-.06-.2-.13-.42-.19-.66-.16-.56-.09-.88.2-1s.53.35.8,1.3c.34,1.2.77,1.89,1.3,2.06a4.64,4.64,0,0,0,1.72-.3l23.77-6.76a5.32,5.32,0,0,0,2.42-1.05q.25-.43-.3-2.37c-.19-.68-.12-1.06.2-1.15s.42.15.57.65l.27,1,.57,2,1.34,4.72q2.25,7.93,2.09,11.56a12.49,12.49,0,0,1-3.4,8A17.08,17.08,0,0,1,384.59,181.51Zm-1.23-5q7.35-2.09,9.95-5.93t.89-9.93c-.56-2-1.11-3.1-1.64-3.39a4.65,4.65,0,0,0-2.2.34l-23.52,6.69a11.55,11.55,0,0,0-1.49.49.77.77,0,0,0-.33.5,12.23,12.23,0,0,0,.73,4.61,10,10,0,0,0,5.55,6.71Q375.71,178.71,383.36,176.53Z"/><path d="M380.2,216.68c-.09,0-.34,0-.74-.05-1-.11-3.51-.22-7.5-.36h-.55c0-3.16-.11-6.75-.32-10.77q-.16-3.26-.42-6.09t-.24-2.46q-.06-1.24.39-1.26c.25,0,1.05.74,2.42,2.26a61.87,61.87,0,0,0,8,7.76,18.16,18.16,0,0,0,12.18,3.6c3.09-.15,5.39-.91,6.92-2.27a5,5,0,0,0,1.62-4.22,5.41,5.41,0,0,0-1.81-4,3.64,3.64,0,0,0-2.53-1.06c-.52,0-.78.45-.76,1.28,0,2.14-.86,3.25-2.63,3.34s-2.57-.75-2.66-2.52a3.6,3.6,0,0,1,.92-2.76,4,4,0,0,1,2.83-1.15,6.83,6.83,0,0,1,5.57,2.1,9.27,9.27,0,0,1,2.38,6.17,9,9,0,0,1-2.14,6.58,10,10,0,0,1-7.36,3.36,14.78,14.78,0,0,1-9.53-2.91q-4.45-3.18-9.9-10.93.24,3,.48,7.6.2,3.8.36,4.8a4.49,4.49,0,0,0,.66,1.75c.3.42,1.34.73,3.12.94,1.24.16,1.86.43,1.88.83S380.66,216.66,380.2,216.68Z"/><path d="M384.81,242a23.92,23.92,0,0,1-7.55-2,15.47,15.47,0,0,1-5.48-3.86,7.55,7.55,0,0,1-1.82-5.94q.45-4.74,5.41-7.37t12.2-1.93q8.4.81,12.81,5.61a8.26,8.26,0,0,1,2.31,6.66,8.17,8.17,0,0,1-4.75,6.73Q392.6,242.78,384.81,242Zm2.11-4.77a35.46,35.46,0,0,0,11.37-.42q3.49-.83,3.76-3.69.56-5.76-14.73-7.22-16-1.54-16.59,4.52c-.19,1.89,1.24,3.39,4.26,4.51A49.17,49.17,0,0,0,386.92,237.25Z"/><path d="M372.42,265.1a7.14,7.14,0,0,1-.69-.26q-1.41-.6-7.07-2.53l-.52-.18q1.37-4.51,2.84-10.39.78-3.15,1.37-5.94c.38-1.86.54-2.67.49-2.43.2-.8.44-1.16.74-1.09s.79,1,1.65,2.87a62.31,62.31,0,0,0,5.41,9.77,18.19,18.19,0,0,0,10.6,7c3,.75,5.42.7,7.28-.16a5,5,0,0,0,2.78-3.55,5.44,5.44,0,0,0-.55-4.4,3.61,3.61,0,0,0-2.11-1.75c-.51-.13-.88.2-1.1,1q-.92,3.07-3.5,2.43t-1.8-3.19a3.6,3.6,0,0,1,1.68-2.37,4,4,0,0,1,3.05-.27,6.85,6.85,0,0,1,4.71,3.63,9.24,9.24,0,0,1,.48,6.59,9,9,0,0,1-4,5.67,10,10,0,0,1-8,1.07A14.78,14.78,0,0,1,377.9,261q-3.33-4.34-6.27-13.33c-.44,2-1,4.44-1.76,7.4-.62,2.46-1,4-1.06,4.7a4.46,4.46,0,0,0,.12,1.87c.16.48,1.07,1.09,2.71,1.81,1.14.51,1.66.95,1.56,1.34S372.87,265.22,372.42,265.1Z"/><path d="M363.22,287.89a5.49,5.49,0,0,1-.64-.36c-.87-.53-3.07-1.72-6.61-3.55l-.49-.26q2-4.26,4.35-9.85,1.26-3,2.24-5.67c.66-1.78.94-2.56.85-2.33.32-.76.62-1.08.9-1s.63,1.13,1.2,3.09a61.75,61.75,0,0,0,3.9,10.46,18.19,18.19,0,0,0,9.43,8.5q4.27,1.79,7.22.93a5,5,0,0,0,3.29-3.1,5.4,5.4,0,0,0,.1-4.43,3.6,3.6,0,0,0-1.82-2.05c-.48-.2-.89.07-1.24.82q-1.36,2.91-3.82,1.89t-1.3-3.42a3.55,3.55,0,0,1,2-2.09,4,4,0,0,1,3.06.18A6.89,6.89,0,0,1,390,280a9.3,9.3,0,0,1-.52,6.59,9,9,0,0,1-4.77,5,10,10,0,0,1-8.08-.15,14.79,14.79,0,0,1-7.35-6.73q-2.65-4.79-4.22-14.13-1.08,2.83-2.84,7.06-1.47,3.51-1.75,4.49a4.48,4.48,0,0,0-.16,1.87c.09.5.9,1.23,2.42,2.19,1,.67,1.49,1.19,1.33,1.56S363.65,288.07,363.22,287.89Z"/><path class="cls-2" d="M207.63,226.1c0-.83.05-1.53.08-2.18s0-1.48.07-2.33l-2.7,2.39Z"/><path class="cls-2" d="M167.17,279a10.68,10.68,0,0,0,8.23,8,15.44,15.44,0,0,0,13.29-3.16l-21.44-11.93A15.28,15.28,0,0,0,167.17,279Z"/><path class="cls-2" d="M180.48,249.6c-2.43,3-5.33,6.67-7.84,10.54,3.74,2.16,16.77,9.68,24.4,14.22a98.44,98.44,0,0,0,5.17-10.89l-21.49-14.18Z"/><path class="cls-2" d="M262,143.26c-3-1.3-17.45-7.47-25.2-10.87-1.34,3.56-2.57,7.09-3.67,10.52l19.43,12.54A89.06,89.06,0,0,0,262,143.26Z"/><path class="cls-2" d="M188.84,239.81l16.7,12.06a101.7,101.7,0,0,0,1.77-13.48l-9.15-8.07Q193.34,234.91,188.84,239.81Z"/><path class="cls-2" d="M214.79,73.1a141.62,141.62,0,0,0-92.72,248.7H307.51A141.62,141.62,0,0,0,214.79,73.1Zm69,67.63c-5,13.89-21.43,34.32-34.42,46.06-7.52,6.79-15.51,13.28-23.23,19.55l-.69.56c3.43,26.09-3.83,56.35-3.91,56.63-5.29,19.28-14.12,32.78-26.23,40.12a25.39,25.39,0,0,1-7.46,3.22,29.1,29.1,0,0,1-8.93,1.4,27.79,27.79,0,0,1-24.06-13.34c-17.58-28.23,7.9-58.32,19.67-69.94,9-9.47,20-18.93,31.21-28.18,0-26,5.62-50.11,18.7-80.4.17-.41,4.41-10.79,11.76-17.57a1.38,1.38,0,0,1,1.87,2c-6.89,6.36-11.05,16.51-11.09,16.61-12.55,29.06-18.13,52.31-18.46,77l5-4.1c2.89-2.37,5.77-4.74,8.6-7.08.17-2.08.38-4.17.62-6.25l-3.7-2.34a1.37,1.37,0,0,1,1.46-2.33l8.36,5.27,2.92-2.48-11.17-8.4a1.38,1.38,0,0,1,1.66-2.21l2.12,1.6c.77-4.23,1.7-8.51,2.8-12.79-1.91-1.19-3.25-2.05-3.47-2.21a1.38,1.38,0,1,1,1.66-2.2c.7.51,12.65,7.93,20.85,13,1.53-1.51,3-3,4.42-4.49l-23.54-15.19a1.38,1.38,0,1,1,1.5-2.31l2.1,1.35c1.07-3.3,2.25-6.68,3.54-10.09-1.17-.53-2-.92-2.32-1.07a1.38,1.38,0,1,1,1.28-2.44c1.59.84,20.28,8.87,30.14,13.08a46.51,46.51,0,0,0,2.47-5.09l-27.21-11.82h0l-3.46-1.5a1.38,1.38,0,0,1,1.1-2.53l2.14.93c.08-.2.19-.47.51-1.18.05-.22,2.7-9.08,8.41-14.92a1.39,1.39,0,0,1,2,0,1.37,1.37,0,0,1,0,2c-5.22,5.34-7.78,13.84-7.8,13.93-.39.92-.48,1.14-.56,1.34l25.84,11.23c0-.11.08-.21.11-.31,2.71-8,3.18-16.29,2.49-20.66a1.38,1.38,0,0,1,2.72-.44c.77,4.86.27,13.53-2.59,21.94-4.25,13.89-17.79,27.85-34.38,42.25v0a1.49,1.49,0,0,1-.28.23q-4.94,4.28-10.15,8.59a1.33,1.33,0,0,1-1,.81q-4.17,3.45-8.43,6.94-3.47,2.85-6.94,5.72a1.38,1.38,0,0,1-.79.65c-11.13,9.21-22.12,18.61-31,28-11.33,11.19-35.82,40-19.28,66.58,5.74,9.76,18.56,14.35,29.85,10.73a23,23,0,0,0,6.82-2.94c11.49-7,19.9-19.91,25-38.49.07-.27,6.89-28.67,4-53.85-4.12,3.35-8.25,6.76-12.34,10.24,0,2.14-.07,3.42-.12,4.83,0,1.13-.09,2.41-.13,4.32l5.48,4.56a1.38,1.38,0,0,1-.88,2.44,1.4,1.4,0,0,1-.88-.32L203,225.82c-.94.86-1.87,1.74-2.8,2.61l14.3,12.62a1.38,1.38,0,0,1-.92,2.41,1.39,1.39,0,0,1-.91-.34l-2.77-2.45a93.14,93.14,0,0,1-1.92,13l3.28,2.37a1.37,1.37,0,0,1,.31,1.92,1.38,1.38,0,0,1-1.92.31l-4-2.91h0L187,241.85c-1.54,1.73-3,3.5-4.49,5.3l26.73,17.64a1.37,1.37,0,0,1,.39,1.9,1.36,1.36,0,0,1-1.15.62,1.4,1.4,0,0,1-.76-.22L204.55,265a99.47,99.47,0,0,1-5.15,10.76c1.59,1,2.75,1.68,3.13,2a1.38,1.38,0,0,1,.28,1.93,1.4,1.4,0,0,1-1.11.55,1.36,1.36,0,0,1-.82-.28c-1.71-1.28-21.16-12.55-29.68-17.46a38.77,38.77,0,0,0-3.17,6.66L197,285.24a1.38,1.38,0,0,1-.67,2.58,1.45,1.45,0,0,1-.67-.17l-4.4-2.45a18,18,0,0,1-12.45,4.9,17.41,17.41,0,0,1-4-.46,13.42,13.42,0,0,1-10.26-10c-2.77-11,7.22-23.51,13.82-31.77l1-1.29c2-2.52,4.1-4.94,6.25-7.32,0,0,0-.06,0-.08a1.18,1.18,0,0,1,.26-.24Q191.25,233,197,227.61s0-.06.05-.08a1.28,1.28,0,0,1,.22-.17c1.51-1.42,3-2.84,4.58-4.23v0L202,223c2.06-1.84,4.13-3.66,6.23-5.45l.13-.11c5.31-4.54,10.71-8.94,16-13.28,7.69-6.25,15.65-12.71,23.12-19.46C260,173.48,276.4,153.1,281.19,139.8c4.58-12.71,3.52-21,2.33-26.16a1.38,1.38,0,1,1,2.68-.62C288.22,121.73,287.45,130.54,283.78,140.73Z"/><path class="cls-2" d="M225.33,178.72c-.08.7-.14,1.39-.21,2.09l1.52-1.27Z"/><path class="cls-2" d="M244.18,164l-14.55-9c-1.11,4.38-2.06,8.76-2.81,13.08l7.06,5.32C237.49,170.2,241,167.08,244.18,164Z"/></g><g id="Layer_2-2" data-name="Layer 2"><path class="cls-4" d="M160.71,362.79V343.6H176.8v1.71l-1.17-.75s-7.78-1-10.44,5.44a58,58,0,0,0-3.55,12.84Z"/><path class="cls-4" d="M198.62,343.6v17.62h-.85c.11-2.46.06-7.25-1.64-11.25-2.54-6-12.12-5.41-12.12-5.41l-1.17.75V343.6Z"/><rect class="cls-4" x="175.51" y="343.6" width="8.56" height="39.9"/><path class="cls-4" d="M170.83,385.85s4.24-.43,4.68-2.63l8.56-.1s.25,2.14,3.25,2.78C187.32,385.9,170.87,385.8,170.83,385.85Z"/><rect class="cls-4" x="167.02" y="385.85" width="25.55" height="0.44" rx="0.22"/><path class="cls-4" d="M236.77,344H218.15a.22.22,0,0,1-.22-.23h0a.22.22,0,0,1,.22-.22h18.62a.22.22,0,0,1,.22.22h0A.22.22,0,0,1,236.77,344Z"/><path class="cls-4" d="M203.82,344h-9.34a.22.22,0,0,1-.22-.22h0a.22.22,0,0,1,.22-.22h8.92"/><path class="cls-4" d="M198.76,378.65V354.71a.45.45,0,0,0-.45-.45h0a.45.45,0,0,0-.45.45v24.13c-.67,6.1-5.37,7-5.37,7l11.42,0a8.71,8.71,0,0,1-5.15-7.23Z"/><path class="cls-4" d="M228.4,351.78a9,9,0,0,1,5.37-7.79L222,344a9.87,9.87,0,0,1,5.54,7.62V375a.45.45,0,0,0,.45.45h0a.45.45,0,0,0,.45-.45"/><polygon class="cls-4" points="198.65 349.72 226.93 386.33 228.4 386.33 228.4 374.59 227.49 374.45 203.5 343.6 198.19 343.6 198.65 349.72"/><rect class="cls-4" x="188.42" y="385.85" width="19.57" height="0.44" rx="0.22"/><rect class="cls-4" x="197.87" y="343.61" width="0.9" height="12.88"/><ellipse class="cls-5" cx="247.8" cy="364.94" rx="20.28" ry="22"/><path class="cls-1" d="M248,386.06c6.24,0,10.66-5,10.93-21.39.26-16.1-4.82-20.92-11.07-20.92h-.26c-6.24,0-11.33,4.82-11.06,20.92.27,16.43,4.69,21.39,10.93,21.39Z"/><path class="cls-5" d="M268.86,386.83l-.9-.1A26.14,26.14,0,0,1,267,393s-2.07,5.82-6,3.76-2.48-4.05-5.15-12.27c-1.21-3.76-2.79-5.78-4.15-6.86a5.55,5.55,0,0,0-1.37-.86,4,4,0,0,0-1.55-.41,5.41,5.41,0,1,0,1.08,10.52,19,19,0,0,0,.36,6.8c1,4.79,6.52,6.83,9.87,6.55a9.28,9.28,0,0,0,7.48-5.93A24,24,0,0,0,268.86,386.83Z"/><path class="cls-6" d="M249.81,386.15a1.69,1.69,0,0,0,.59-1,16.75,16.75,0,0,0,.47-4.52,3.6,3.6,0,0,0-.83-2.38c-1-1.06-2.76-.81-4-.25a4.38,4.38,0,0,0-1.72,6.49,5,5,0,0,0,4.92,1.91A1.34,1.34,0,0,0,249.81,386.15Z"/></g></g></svg>