<svg width="29" height="29" viewBox="0 0 29 29" fill="none" xmlns="http://www.w3.org/2000/svg">
<path d="M14.6818 0.19873C6.8356 0.19873 0.473633 6.5607 0.473633 14.4069C0.473633 22.2531 6.8356 28.6151 14.6818 28.6151C22.528 28.6151 28.89 22.2531 28.89 14.4069C28.89 6.5607 22.528 0.19873 14.6818 0.19873ZM21.51 10.9088C21.5195 11.0578 21.5195 11.2132 21.5195 11.3655C21.5195 16.0212 17.9738 21.3842 11.4945 21.3842C9.49647 21.3842 7.64433 20.8038 6.08396 19.8048C6.3694 19.8365 6.64214 19.8492 6.93392 19.8492C8.58308 19.8492 10.099 19.291 11.3074 18.3459C9.7597 18.3142 8.4594 17.2993 8.01539 15.9039C8.55771 15.9831 9.04612 15.9831 9.6043 15.8404C8.80739 15.6785 8.09111 15.2457 7.57714 14.6155C7.06318 13.9854 6.78323 13.1967 6.78486 12.3835V12.3391C7.25107 12.6024 7.79973 12.7641 8.37377 12.7863C7.8912 12.4647 7.49545 12.029 7.22161 11.5178C6.94776 11.0066 6.80428 10.4358 6.80389 9.85586C6.80389 9.19936 6.97515 8.59996 7.28278 8.07984C8.16731 9.16872 9.27107 10.0593 10.5223 10.6937C11.7736 11.328 13.1443 11.692 14.5454 11.7619C14.0475 9.36745 15.8362 7.42968 17.9865 7.42968C19.0014 7.42968 19.9147 7.85466 20.5586 8.5397C21.3546 8.39064 22.1157 8.09252 22.7944 7.69292C22.5312 8.50798 21.9794 9.19619 21.2468 9.63068C21.9572 9.55457 22.6422 9.35794 23.2765 9.08202C22.7976 9.78609 22.1982 10.4109 21.51 10.9088Z" fill="#CBA051"/>
</svg>
